<svg id="Layer_1" data-name="Layer 1" xmlns="http://www.w3.org/2000/svg" viewBox="0 0 1000 1000"><defs><style>.cls-1{fill:#b00400;}</style></defs><title>logo-2</title><path d="M873.52,268.73c-61.6-16.16-123.56-14.67-185.7-3.53-23.59,4.23-46.27,12.32-69.57,17.33C563,294.41,507,301.36,450.4,301.32c-71.34-.05-141.33-6.62-203.6-48.47,1.11,1.7,1.87,2.89,2.65,4.07,20.12,30.5,43.38,58.35,70.9,82.43,63.26,55.34,136.37,84.42,221.09,82,4.06-.12,8.12-.33,12.2-.73-4.06-35.53,48.22-82.78,122.75-109,70.11-24.72,136.52-22.61,160.06,2.89,13.52-2.31,57.35-8.2,129.52-2.78A279.89,279.89,0,0,0,873.52,268.73Z"/><path d="M386.54,592.86c-34.22,27-59.21,37.79-75.45,40.15,8.61,6.24,14.38,14.37,21.44,21.22l1,1C356.54,638.59,386.08,593.44,386.54,592.86Z"/><path d="M239.69,717.83l.79-.23a171.65,171.65,0,0,0,18.18-6.6c-13.89-12.84-32-20.23-50.3-22.81,7.71,4.7,14.21,9.44,19.7,15.42,2.34,2.55,3.84,5.38,3.09,9.21l3.27-.7Z"/><path d="M327.13,661.91a66.1,66.1,0,0,0-7.07-5.81c-18.65-12.81-39.79-17.62-62.13-17.12-11.48.26-22.92,1.78-34.4,2.4-19.51,1-39.11,2.12-58.47-1.25a105.74,105.74,0,0,0-26.14-1.23c-10.37.76-20.61,2.2-30.14,6.74-2.63,1.26-4.79,2.6-5.33,6.05a12,12,0,0,1-4.85,7.94c-1.84,1.3-1.31,1.89-.24,3.53,5,7.63,10.9,9,20.14,7,22.11-4.79,44.6-8.31,67.59-2.51-7.42-10.05-15.56-18.93-27.4-25a12.08,12.08,0,0,1,2.14,0c23.68,6.58,46.46,15.32,67.57,28.06,15.69,9.47,29.8,20.7,40.73,35.41C290.42,695.28,309.07,680.29,327.13,661.91Z"/><path d="M251.7,298c-6.47,17.06-15.51,32.84-24.87,48.43C216.45,363.7,203.68,379,187.36,391c-17.66,13-37.17,21.13-59.43,21.74-3,.08-4.59-.79-5.91-3.61-3.13-6.65-6.72-13.08-10.53-20.38-.52,6.85-3.78,11.41-7.44,15.69-10.29,12-23,21.21-35.86,30.16-11.2,7.78-22.88,14.83-34.75,21.76a11.73,11.73,0,0,0,4.63,1.43,187.29,187.29,0,0,0,77.81-4.2c41.44-10.92,77.25-32.3,110-59.38,12.42-10.29,23-22.53,35-33.17q13-11.55,26.62-22.33A412.06,412.06,0,0,1,251.7,298Z"/><path d="M276.88,542.32c6.85-6.19,15.32-8.92,24-11.24,2.51-.67,5.06-1.22,8.27-2A122.83,122.83,0,0,0,259.67,517c-45.38-1.87-87.55,10.72-128.44,28.94-3.14,1.4-1.79,2.71-.22,3.79,5.12,3.56,10.77,3.77,16.49,1.81a199.33,199.33,0,0,1,59.25-10.44c9.89-.3,19.85-1,29.65,1,10.28,2.09,13.38,7.94,9.82,17.63-11.61,22.38-31.15,41.33-61.14,49.82-13.42,3.42-22.24-2.74-26.79-15.61-.23-.63-.47-1.26-.91-2.45-6,8.27-10.19,16.56-9.87,26.54a25,25,0,0,0,2.93,10.72c1.2,2.34,2.55,3.2,5.41,2.66,11.59-2.2,23.14-4.55,34.58-7.46,35.42-9,69.55-21.39,101.46-39.43,6.88-3.89,13.79-7.77,20.31-12.2,8.11-5.51,7.58-11.32-1.16-15.85a58,58,0,0,0-21.89-6.1A19.47,19.47,0,0,0,278.64,552c-3.3,1.63-5,4.52-6.13,8.55C269.85,552.93,271.55,547.14,276.88,542.32Z"/><path d="M118.36,553.14c-2.26,3-6.23,2.56-6.3,6.56-.15,8.21-4.25,14.39-10.36,19.53A121.31,121.31,0,0,1,75.18,596c-5,2.34-5.06,6-4.93,10.18.08,2.32,1.55,4.3,2.86,6.21,4.84,7,11,12.81,17.34,18.5,1,.92,2.1,2.36,3.71,1.33s1.56-2.64.84-4.22a7.92,7.92,0,0,1,1.73-9.2c4.76-4.91,10.6-7.3,17.61-5.46,4.73,1.24,8.48,4.1,12.13,7.19a10.5,10.5,0,0,0,15.4-2.13c3.91-5.64,2.8-8.66-3.81-10.39a10.33,10.33,0,0,1-1.44-.59c.29-1.58,1.46-1.9,2.46-2.42,1.49-.77,3.77-.89,3.94-2.91.19-2.23-2.12-2.82-3.65-3.71-10.06-5.86-20.41-7.19-31.83-1,3.67-6.59,9-8.61,14.93-8.65,4.29,0,6.31-1.86,7.29-5.67,1.4-5.39,1-10.84.69-16.3-.06-1.24-.56-1.68-1.81-1.84C122.39,564.18,118.83,560.66,118.36,553.14Z"/><path d="M147.76,372.33c3.06,2.27,5.26,2.75,8.36-.47,9.73-10.11,19.4-20.36,32-27.76-16.45-14.31-25-31-15.56-52.93-10.38,13.59-19.76,27.67-26.47,43.36-3,6.9-5.34,14-5.53,21.58C140.42,362.6,142.23,368.24,147.76,372.33Z"/><path d="M142.37,402.12c37.85-8.92,62.38-33.92,80.39-66.81A224.87,224.87,0,0,0,142.37,402.12Z"/><path d="M132.73,678.7c3.4-.57,6.82-1.05,10.26-1.32,19.21-1.47,37.92,1.37,57.16,7.2-6.94-6.91-13.75-11.6-23.2-12.12-18.43-1-46.52-.17-67.66,3.41.32,4.4,3.1,5.3,6.56,5.25-3.56,6.53.94,10.49,4.26,14.82C119.17,686.6,123.71,680.21,132.73,678.7Z"/><path d="M224.51,713.23c-10.22,2.22-20.55,2.11-30.89,2.31-1.72,0-2-.79-2.39-2.2-3.81-12.28-12.41-21.4-20.66-31,.83,10.05,1.05,21.54-.8,29.81-.82,3.66-1.58,5-5.28,5.21-14.64.63-28.91-1.81-43.18-4.53-1.17-.22-3.54-.73-3.81.68-.34,1.79-.53,3.46,1.36,4.37a5.42,5.42,0,0,0,1.22.42c5.32,1.22,10.61,2.64,16,3.34,29.79,3.85,59.38,1.25,88.91-2.93a4.79,4.79,0,0,0,.84-.16C228.69,717.66,227,712.7,224.51,713.23Z"/><path d="M742.45,710.91c-63.26-55.34-136.37-84.42-221.09-82-4.06.12-8.12.33-12.2.74,4.06,35.53-48.21,82.78-122.74,109-70.12,24.72-136.53,22.61-160.06-2.89C212.83,738.14,169,744,96.84,738.6a279.7,279.7,0,0,0,92.45,42.93c61.6,16.16,123.56,14.67,185.69,3.53,23.59-4.23,46.27-12.31,69.57-17.33,55.23-11.88,111.25-18.83,167.85-18.79,71.34,0,141.34,6.63,203.6,48.47-1.1-1.7-1.87-2.89-2.65-4.07C793.23,762.84,770,735,742.45,710.91Z"/><path d="M812.31,311.19c-27.85-2.92-55.65-2.7-83.29,1.89-63.53,10.54-116.3,39.68-156,91-1.91,2.46-3.76,5-5.5,7.58,4.79,3.1,9.15,9.51,12.48,18.07q-9.72,3.63-19,7.94a272,272,0,0,0-92.39,69.59c-9,10.3-70.58,105.84-94.08,134.4-34.72,42.22-72.66,80.46-127.71,97l3.7.4c27.84,2.93,55.64,2.7,83.28-1.89,63.53-10.54,116.3-39.68,156.06-91,1.9-2.46,3.75-5,5.5-7.58-4.8-3.1-9.15-9.51-12.48-18.06q9.72-3.64,19-8A271.94,271.94,0,0,0,594.22,543c9-10.3,70.58-105.84,94.07-134.4C723,366.36,761,328.11,816,311.59Zm-255,238.29c-26.06,27.42-58.94,40.18-80.54,33.13-8.15-21.22,2.92-54.71,29-82.13s58.94-40.18,80.55-33.13C594.46,488.57,583.39,522.05,557.32,549.48Z"/><path d="M487.41,458.21Q497.36,450,508,442.67a324.31,324.31,0,0,1-122.87-33.24c-37.71,3-74.88,10.34-111.71,20.2-10.44,2.8-20.79,5.91-32.43,9.22,1.6-.94,2.05-1.26,2.54-1.48,39.25-17.25,79.52-30.67,121.16-38.94a379.61,379.61,0,0,1-58.8-42.52Q299.81,350.6,294,345c-10.75,8.21-21.66,16.28-31,26.05-42.79,44.54-91.92,78.53-153,92.9a7.66,7.66,0,0,0-2,.63c-1.48,13.59-7.8,63.5-23.76,94.77,1.44-.89,2.5-1.55,3.55-2.22,26.84-17.29,55-31.85,85.42-41.85,40.07-13.18,80.82-17.69,122.45-8.8,29.89,6.38,57,18.66,80.65,38.4a8.36,8.36,0,0,1,3.36,6.94c0,5.75.5,11.5.85,18.43,1.23-5.53,2-9.89,3.18-14.16,5.86-21.77,21-34.07,43.4-35.35,1.74-.1,3.48-.16,5.23-.19,10.56-15.55,16.51-24,19.72-27.73a306.83,306.83,0,0,1,23.87-24.56A731.18,731.18,0,0,0,382,462.61a6.62,6.62,0,0,1-4.12-.94C414.62,457.37,451.09,455.92,487.41,458.21Z"/><path class="cls-1" d="M450.89,287.32c52.83,0,106.61-6,164.42-18.48,9.88-2.13,19.57-4.8,29.82-7.64,7.12-2,14.38-4,21.75-5.78a316.07,316.07,0,0,0-354.49,14.07c44.81,15.08,92.22,17.8,138,17.83Z"/><path class="cls-1" d="M611.92,762.94c-52.84,0-106.62,6-164.42,18.48-9.89,2.13-19.57,4.81-29.83,7.64-13,3.59-26.4,7.3-40.22,9.78q-13.11,2.35-25.72,4a316.13,316.13,0,0,0,348.06-34.28c-29.07-4.57-58.55-5.65-87.4-5.67Z"/><path class="cls-1" d="M573.48,479.43c-17.25,0-39.85,12.05-57.57,30.69-20.71,21.8-29,45.17-27.63,60.38l1.33,0c17.25,0,39.85-12,57.57-30.69,20.71-21.8,29-45.17,27.63-60.37C574.37,479.44,573.93,479.43,573.48,479.43Z"/><path class="cls-1" d="M699.11,417.46c-13.48,16.38-40.44,56.3-62.1,88.38-18.4,27.25-28.19,41.68-32.23,46.32a285.9,285.9,0,0,1-76.65,62.65l3.06,0c81.38,0,155.56,28.79,220.48,85.58q3.24,2.85,6.43,5.78a316.17,316.17,0,0,0,7.3-353.94C739.85,370.41,718.57,393.8,699.11,417.46Z"/><path d="M149.52,775a60.3,60.3,0,0,1-31.12,18.22c-3.66.86-7.36,1.59-12.39,2.67,19.27,4.92,75.13,18.39,106.86-3.17q-14.26-2.52-28.51-6.24A293.47,293.47,0,0,1,149.52,775Z"/></svg>