<svg id="Layer_1" data-name="Layer 1" xmlns="http://www.w3.org/2000/svg" viewBox="0 0 1000 1000"><defs><style>.cls-1{fill:#b00400;}</style></defs><title>logo-3</title><path d="M869.17,745.57a60.32,60.32,0,0,0,20.73,29.51c3,2.3,6,4.5,10.16,7.58-19.57-3.54-76-14.52-95.86-47.32q14,3.63,28.51,6.18A294.42,294.42,0,0,0,869.17,745.57Z"/><path d="M698.73,666.28c-63.26-55.34-136.37-84.42-221.09-82-4.06.11-8.12.32-12.2.73,4.06,35.53-48.22,82.78-122.75,109.05-70.11,24.71-136.52,22.61-160.06-2.9-13.52,2.32-57.35,8.21-129.52,2.79a279.67,279.67,0,0,0,92.45,42.92c61.6,16.16,123.56,14.67,185.7,3.53,23.59-4.23,46.27-12.31,69.57-17.32,55.22-11.88,111.25-18.84,167.85-18.8,71.34.06,141.33,6.63,203.6,48.47-1.11-1.7-1.87-2.88-2.65-4.06C749.51,718.21,726.25,690.36,698.73,666.28Z"/><path d="M785.72,723.78c.89.18,1.82.82,2.92,0-9.26-12.69-14.26-27-15.8-42.58A108,108,0,0,0,786.45,707a184.43,184.43,0,0,0,16,19,6.73,6.73,0,0,0,4,2c25.21,4.68,50.53,8.6,76,11.29,1.36.14,2.66.68,2.92-1.57.76-6.44,4.34-11.6,8.05-16.63,1.44-2,1.51-3.39-.05-5.44a124.53,124.53,0,0,1-7.29-11.13c-1.28-2.12-2.08-4.54-3.35-6.67s.66-5.43-1.71-6.2c-1.91-.62-4.47,1-6.78,1.37-9,1.57-17.8.48-26.46-2.3,5.31.06,10.6.61,15.92.25a57.91,57.91,0,0,0,13-2.3c7.59-2.32,12.69-6.54,13.72-15,.6-4.92-1.18-7.29-6.09-6a103.32,103.32,0,0,1-13.8,3c-23.82,3-47.54,1.12-71.24-1.53-8.39-.93-16.72-2.43-25.1-3.48-4.08-.51-4.94-3-4.51-6.41.5-3.89,2.77-6.91,5.32-9.69,5.29-5.76,11.54-10.32,19-14.85-25.68,3.61-51,17.06-63.88,42.27a415.39,415.39,0,0,1,36,42.49Q775.93,721.7,785.72,723.78Z"/><path d="M899.8,607.1a11.61,11.61,0,0,1-4.67-7.65c-.53-3.33-2.6-4.62-5.14-5.83-9.18-4.37-19-5.77-29-6.5a102.36,102.36,0,0,0-25.18,1.19c-18.66,3.24-37.53,2.22-56.33,1.2-11.06-.59-22.08-2-33.14-2.3-21.52-.49-41.89,4.15-59.85,16.48-6,4.12-10.7,10-17,13.93a71.17,71.17,0,0,1-7,3.91,377.78,377.78,0,0,1,45.46,34.22q8.91,7.79,17.35,16.18a52.77,52.77,0,0,1,6.88-15.3c10.92-16.56,25.82-28.75,42.59-38.87,20.33-12.27,42.28-20.69,65.09-27a11.21,11.21,0,0,1,2.06,0c-11.4,5.86-19.25,14.41-26.4,24.09,22.16-5.59,43.82-2.2,65.12,2.42,8.9,1.93,14.59.57,19.4-6.78C901.06,608.92,901.57,608.35,899.8,607.1Z"/><path d="M929.09,390.32c-12.4-8.62-24.63-17.46-34.54-29-3.52-4.13-6.67-8.53-7.17-15.12-3.67,7-7.13,13.23-10.14,19.64-1.27,2.7-2.84,3.55-5.7,3.47-21.44-.59-40.23-8.39-57.24-20.94-15.73-11.6-28-26.31-38-43-4.13-6.89-8.19-13.8-12-20.86A187.65,187.65,0,0,0,726,304.56q8.85,7.28,17.45,14.9c11.55,10.26,21.77,22.05,33.74,32,31.52,26.09,66,46.68,105.93,57.2a180.27,180.27,0,0,0,75,4c1.43-.22,3.08,0,4.46-1.37C951.14,404.61,939.89,397.82,929.09,390.32Z"/><path d="M726.36,503.42a18.64,18.64,0,0,0-10.13-1.62,55.77,55.77,0,0,0-21.08,5.87c-8.42,4.36-8.93,10-1.12,15.27,6.29,4.27,12.94,8,19.56,11.75,30.75,17.38,63.63,29.29,97.75,38,11,2.81,22.14,5.07,33.31,7.19,2.75.52,4.05-.3,5.21-2.56A24,24,0,0,0,852.68,567c.31-9.61-3.71-17.6-9.5-25.56-.43,1.14-.66,1.74-.88,2.36-4.39,12.39-12.88,18.33-25.81,15-28.89-8.19-47.71-26.44-58.9-48-3.42-9.34-.44-15,9.46-17,9.44-1.92,19-1.22,28.56-.94a192.64,192.64,0,0,1,57.08,10.06c5.51,1.89,10.95,1.69,15.89-1.74,1.51-1.05,2.82-2.3-.21-3.65-39.39-17.56-80-29.68-123.73-27.89A118.5,118.5,0,0,0,697,481.34c3.09.75,5.54,1.28,8,1.92,8.34,2.24,16.51,4.87,23.1,10.83,5.14,4.64,6.78,10.22,4.21,17.57C731.18,507.77,729.54,505,726.36,503.42Z"/><path d="M904.08,580.7c1.55,1,2.59-.39,3.57-1.28,6.06-5.48,12-11,16.7-17.83,1.26-1.83,2.68-3.74,2.76-6,.13-4,0-7.55-4.75-9.81a117.28,117.28,0,0,1-25.55-16.17c-5.88-4.95-9.83-10.9-10-18.81-.07-3.85-3.89-3.41-6.08-6.32-.45,7.25-3.87,10.63-9.9,11.38-1.2.15-1.68.58-1.74,1.77-.26,5.26-.69,10.51.66,15.7,1,3.67,2.89,5.43,7,5.46,5.72,0,10.84,2,14.38,8.34-11-6-21-4.71-30.67.94-1.47.86-3.7,1.43-3.51,3.58.16,1.94,2.36,2.06,3.79,2.8,1,.5,2.1.81,2.37,2.33a10.76,10.76,0,0,1-1.38.57c-6.37,1.67-7.44,4.58-3.67,10A10.1,10.1,0,0,0,873,569.44c3.51-3,7.13-5.74,11.69-6.93,6.75-1.77,12.37.53,17,5.27a7.61,7.61,0,0,1,1.67,8.86C902.58,578.15,902.55,579.72,904.08,580.7Z"/><path d="M780.2,294.67c17.34,31.68,41,55.77,77.43,64.35A216.57,216.57,0,0,0,780.2,294.67Z"/><path d="M810.57,658.84c-.42,1.36-.64,2.14-2.31,2.11-10-.19-19.94.07-29.75-2.22-.87-.2-2.43-2-2.83.28-.3,1.7-1.2,4,1.53,4.9a5.64,5.64,0,0,0,.82.15c28.45,4,56.94,6.53,85.64,2.82,5.22-.67,10.31-2,15.44-3.22,3-.69,2.93-2.59,2.48-4.61-.57-2.6-2.54-.87-3.66-.66-13.75,2.63-27.5,5-41.61,4.37-3.56-.15-4.88-1.41-5.08-5-.53-9.53-1.57-19-.77-28.72C822.53,638.22,814.24,647,810.57,658.84Z"/><path d="M889.51,622.74c-4-.44-8.09-1-12.18-1.34-17.63-1.61-35.26-2.94-53-1.95-9.1.51-15.66,5-22.35,11.68,18.54-5.62,36.56-8.35,55.07-6.93,3.31.25,6.61.72,9.88,1.27,8.69,1.45,13.06,7.61,12.16,16.6,3.2-4.17,7.54-8,4.1-14.27C886.52,627.85,889.2,627,889.51,622.74Z"/><path d="M768.58,266.56c-27.84-2.92-55.64-2.69-83.28,1.89-63.53,10.54-116.3,39.68-156.06,91-1.9,2.46-3.75,5-5.5,7.58,4.8,3.1,9.15,9.51,12.48,18.07q-9.72,3.64-19,7.94a272.07,272.07,0,0,0-92.4,69.59c-9,10.31-70.58,105.84-94.07,134.41-34.73,42.21-72.66,80.45-127.71,97l3.69.41c27.84,2.92,55.65,2.69,83.29-1.89,63.53-10.54,116.3-39.68,156.05-91,1.91-2.46,3.76-5,5.5-7.58-4.79-3.1-9.15-9.52-12.48-18.07q9.72-3.64,19-8a272,272,0,0,0,92.39-69.58c9-10.31,70.58-105.84,94.08-134.41,34.72-42.21,72.66-80.45,127.71-97Zm-255,238.29C487.54,532.28,454.66,545,433.05,538c-8.14-21.22,2.93-54.7,29-82.13s58.94-40.18,80.55-33.13C550.73,443.94,539.67,477.42,513.6,504.85Z"/><path d="M642,208.76a541.84,541.84,0,0,1,69.87-8.15c-37.57-14.55-77.13-16.74-118.38-8.18-23.22,4.81-45.22,13.12-66.3,23.92l-2.79,1.45a169.27,169.27,0,0,1,58.26,5.86c6.34-1.59,12.7-3.33,19.3-5.16C614.88,214.92,628.25,211.23,642,208.76Z"/><path d="M922.24,267a279.48,279.48,0,0,0-92.45-42.92c-61.6-16.16-123.56-14.67-185.69-3.53-23.59,4.23-46.27,12.31-69.57,17.32-55.23,11.88-111.25,18.83-167.85,18.79-71.34-.05-141.34-6.62-203.6-48.46,1.1,1.7,1.87,2.88,2.65,4.06,20.12,30.5,43.38,58.35,70.9,82.43,63.26,55.35,136.37,84.43,221.09,82,4.06-.11,8.12-.32,12.2-.73-4.06-35.53,48.21-82.78,122.74-109,70.12-24.71,136.53-22.61,160.06,2.9a355,355,0,0,1,38.33-4.06,44.89,44.89,0,0,0-3.75-14.44l-3.22-7.46,4.93,6.45c4,5.28,7.61,10.24,10.81,15A710.61,710.61,0,0,1,922.24,267Z"/><path d="M853.05,332.08c-3.06,2.27-5.26,2.75-8.36-.47-9.73-10.11-19.4-20.36-32-27.76h0c16.45-14.31,25-31,15.56-52.93h0c10.39,13.59,19.76,27.67,26.47,43.36,2.95,6.9,5.35,14,5.54,21.58C860.39,322.35,858.58,328,853.05,332.08Z"/><path d="M901.92,472.09a194.31,194.31,0,0,1-6.38-37.62c-.28-4.79-2.36-9.09-3.54-13.63-.44-1.67-1.72-1.89-3.11-2.22C830.06,404.77,782.73,372,741.51,329.13c-6.92-7.21-14.71-13.45-22.63-19.53C699,324.24,681.71,342,665.81,360.44A579.17,579.17,0,0,1,760.2,393c.48.2.91.52,2.45,1.43-11.21-3.2-21.19-6.19-31.24-8.89A660,660,0,0,0,657.75,370l-2.37,2.87c-7.36,9-18.76,24.94-31.11,42.83L710,420.81c1.86,5.74-88.06-1.75-88.06-1.75-9.92,14.39-19.19,28.15-28.65,42.16-1.95,2.9-3.8,5.63-5.56,8.24a72.35,72.35,0,0,1,58.46,16.71c19.31-13,40.73-21.64,63.84-26.58,40.11-8.57,79.36-4.22,118,8.48,29.28,9.63,56.43,23.66,82.28,40.31,1.34.86,2.7,1.69,4.9,3.06A316.27,316.27,0,0,1,901.92,472.09Z"/><path d="M633.52,605q11.1,5.65,21.93,12.19c7-3.95,13-9.49,19-15.25,6.8-6.61,12.36-14.44,20.65-20.44l-32.92-4.79A73.06,73.06,0,0,1,633.52,605Z"/><path d="M820.11,545.28a13,13,0,0,0,3,.42c1.27,0,3.61,0,6-6.6.17-.48.35-1,.59-1.59l9-24.24a183.42,183.42,0,0,0-43.52-6.4l-4-.13c-3.16-.11-6.14-.22-9.08-.22a66.84,66.84,0,0,0-10.56.71C782.37,526.37,798.68,539.16,820.11,545.28Z"/><path d="M840.35,513.73l8.75,12q.52-4.49.95-9c-.64-.18-1.27-.38-1.9-.6C845.59,515.3,843,514.48,840.35,513.73Z"/><path class="cls-1" d="M568.66,724.32h-.48c-52.4,0-105.76,6-163.14,18.34-9.72,2.09-19.32,4.74-29.49,7.56-13.11,3.62-26.67,7.37-40.76,9.9-33,5.92-63.48,8.8-93.09,8.8-3.53,0-7-.06-10.56-.14a398.14,398.14,0,0,0,543.79,9.88l-13.8-9.28C702.3,729.85,633.86,724.36,568.66,724.32Z"/><path class="cls-1" d="M407.18,236.69q19.69,0,39.62-1.13l71.25-37c24.05-12.33,47.39-20.73,71.35-25.71a252.91,252.91,0,0,1,51.16-5.43A216.4,216.4,0,0,1,719.08,182l26.58,10.29q18.54.53,36.59,2.64l-.66-1.51A398.13,398.13,0,0,0,228,200.17c55.59,31.78,118.5,36.48,178.66,36.52Z"/><path class="cls-1" d="M190,669.65l5.39,5.83,2-.6c48-14.39,81.88-46.6,118-90.52,13.29-16.16,40.17-56,61.76-87.93,18.54-27.44,28.41-42,32.68-46.9a293.65,293.65,0,0,1,60.5-53.15c-76-3.87-145.49-32.95-206.82-86.6-24.47-21.41-46.34-46-66.57-74.92A398.42,398.42,0,0,0,159,674.07c9.77-.93,16.57-2,20.31-2.59Z"/><path class="cls-1" d="M535.81,533.27a64.48,64.48,0,0,0-.5,7.91,63.32,63.32,0,0,0,9.88,34,315.29,315.29,0,0,1,78,24.71,63.6,63.6,0,0,0-42.9-119.58c-10.27,15.11-16.32,23.79-19.29,27.19A299.69,299.69,0,0,1,535.81,533.27Z"/></svg>