<svg id="Layer_1" data-name="Layer 1" xmlns="http://www.w3.org/2000/svg" viewBox="0 0 1000 1000"><title>logo-1</title><path d="M873.52,257.22c-61.6-16.16-123.56-14.67-185.7-3.53C664.23,257.92,641.55,266,618.25,271,563,282.89,507,289.85,450.4,289.81c-71.34-.06-141.33-6.63-203.6-48.47,1.11,1.7,1.87,2.89,2.65,4.06,20.12,30.51,43.38,58.36,70.9,82.44,63.26,55.34,136.37,84.42,221.09,82,4.06-.11,8.12-.32,12.2-.73-4.06-35.53,48.22-82.78,122.75-109,70.11-24.71,136.52-22.61,160.06,2.9,13.52-2.32,57.35-8.21,129.52-2.79A279.67,279.67,0,0,0,873.52,257.22Z"/><path d="M386.54,581.35c-34.22,27-59.21,37.79-75.45,40.15,8.61,6.23,14.38,14.36,21.44,21.22l1,1C356.54,627.08,386.08,581.92,386.54,581.35Z"/><path d="M239.69,706.32l.79-.24a171.65,171.65,0,0,0,18.18-6.6c-13.89-12.84-32-20.23-50.3-22.81,7.71,4.71,14.21,9.45,19.7,15.43,2.34,2.55,3.84,5.37,3.09,9.21l3.27-.71Z"/><path d="M327.13,650.4a66.2,66.2,0,0,0-7.07-5.82c-18.65-12.8-39.79-17.62-62.13-17.11-11.48.26-22.92,1.77-34.4,2.39-19.51,1.06-39.11,2.12-58.47-1.25a106.22,106.22,0,0,0-26.14-1.23c-10.37.76-20.61,2.21-30.14,6.75-2.63,1.25-4.79,2.59-5.33,6a12.07,12.07,0,0,1-4.85,7.94c-1.84,1.3-1.31,1.89-.24,3.53,5,7.63,10.9,9,20.14,7,22.11-4.8,44.6-8.32,67.59-2.52-7.42-10-15.56-18.92-27.4-25a11.09,11.09,0,0,1,2.14,0c23.68,6.57,46.46,15.32,67.57,28,15.69,9.47,29.8,20.7,40.73,35.41C290.42,683.76,309.07,668.77,327.13,650.4Z"/><path d="M251.7,286.44c-6.47,17.06-15.51,32.84-24.87,48.44-10.38,17.3-23.15,32.57-39.47,44.62-17.66,13-37.17,21.13-59.43,21.74-3,.08-4.59-.8-5.91-3.61-3.13-6.65-6.72-13.09-10.53-20.38-.52,6.84-3.78,11.41-7.44,15.69-10.29,12-23,21.2-35.86,30.15-11.2,7.79-22.88,14.83-34.75,21.77a11.69,11.69,0,0,0,4.63,1.42,187.12,187.12,0,0,0,77.81-4.2c41.44-10.91,77.25-32.29,110-59.38,12.42-10.28,23-22.52,35-33.17q13-11.55,26.62-22.32A413.33,413.33,0,0,1,251.7,286.44Z"/><path d="M276.88,530.81c6.85-6.19,15.32-8.92,24-11.24,2.51-.67,5.06-1.22,8.27-2a123,123,0,0,0-49.46-12.13c-45.38-1.86-87.55,10.72-128.44,28.95-3.14,1.4-1.79,2.7-.22,3.79,5.12,3.55,10.77,3.77,16.49,1.81a199.66,199.66,0,0,1,59.25-10.45c9.89-.29,19.85-1,29.65,1,10.28,2.1,13.38,7.94,9.82,17.63-11.61,22.39-31.15,41.33-61.14,49.83-13.42,3.41-22.24-2.75-26.79-15.62-.23-.63-.47-1.26-.91-2.44-6,8.26-10.19,16.56-9.87,26.53a25,25,0,0,0,2.93,10.73c1.2,2.34,2.55,3.19,5.41,2.65,11.59-2.2,23.14-4.55,34.58-7.46C225.85,603.36,260,591,291.89,573c6.88-3.88,13.79-7.77,20.31-12.2,8.11-5.5,7.58-11.32-1.16-15.84a57.81,57.81,0,0,0-21.89-6.1,19.46,19.46,0,0,0-10.51,1.68c-3.3,1.64-5,4.52-6.13,8.56C269.85,541.42,271.55,535.63,276.88,530.81Z"/><path d="M118.36,541.62c-2.26,3-6.23,2.57-6.3,6.57-.15,8.2-4.25,14.39-10.36,19.53A121.69,121.69,0,0,1,75.18,584.5c-5,2.34-5.06,6-4.93,10.18.08,2.31,1.55,4.3,2.86,6.2,4.84,7,11,12.82,17.34,18.51,1,.92,2.1,2.35,3.71,1.32s1.56-2.64.84-4.22a7.91,7.91,0,0,1,1.73-9.19c4.76-4.92,10.6-7.3,17.61-5.47,4.73,1.24,8.48,4.11,12.13,7.2a10.5,10.5,0,0,0,15.4-2.14c3.91-5.63,2.8-8.65-3.81-10.38a11.73,11.73,0,0,1-1.44-.6c.29-1.58,1.46-1.9,2.46-2.42,1.49-.76,3.77-.88,3.94-2.9.19-2.24-2.12-2.82-3.65-3.71-10.06-5.87-20.41-7.19-31.83-1,3.67-6.6,9-8.61,14.93-8.66,4.29,0,6.31-1.86,7.29-5.67,1.4-5.39,1-10.84.69-16.29-.06-1.24-.56-1.69-1.81-1.84C122.39,552.66,118.83,549.15,118.36,541.62Z"/><path d="M147.76,360.82c3.06,2.26,5.26,2.74,8.36-.48,9.73-10.11,19.4-20.36,32-27.76-16.45-14.3-25-31-15.56-52.93-10.38,13.6-19.76,27.68-26.47,43.37-3,6.89-5.34,14-5.53,21.57C140.42,351.09,142.23,356.73,147.76,360.82Z"/><path d="M142.37,390.6c37.85-8.91,62.38-33.91,80.39-66.8A224.85,224.85,0,0,0,142.37,390.6Z"/><path d="M132.73,667.18c3.4-.56,6.82-1,10.26-1.31,19.21-1.48,37.92,1.36,57.16,7.2-6.94-6.91-13.75-11.6-23.2-12.13-18.43-1-46.52-.17-67.66,3.42.32,4.39,3.1,5.3,6.56,5.24-3.56,6.54.94,10.5,4.26,14.82C119.17,675.09,123.71,668.69,132.73,667.18Z"/><path d="M224.51,701.72c-10.22,2.22-20.55,2.1-30.89,2.3-1.72,0-2-.78-2.39-2.19-3.81-12.28-12.41-21.41-20.66-31,.83,10,1.05,21.54-.8,29.8-.82,3.66-1.58,5.06-5.28,5.22-14.64.63-28.91-1.81-43.18-4.53-1.17-.23-3.54-.73-3.81.67-.34,1.79-.53,3.47,1.36,4.38a6,6,0,0,0,1.22.42c5.32,1.22,10.61,2.64,16,3.34,29.79,3.85,59.38,1.24,88.91-2.94a4.77,4.77,0,0,0,.84-.15C228.69,706.14,227,701.19,224.51,701.72Z"/><path d="M742.45,699.4c-63.26-55.35-136.37-84.43-221.09-82-4.06.11-8.12.32-12.2.73,4.06,35.53-48.21,82.78-122.74,109.05-70.12,24.71-136.53,22.61-160.06-2.9-13.53,2.32-57.36,8.21-129.52,2.79A279.48,279.48,0,0,0,189.29,770c61.6,16.16,123.56,14.67,185.69,3.53,23.59-4.23,46.27-12.31,69.57-17.32,55.23-11.88,111.25-18.83,167.85-18.79,71.34.05,141.34,6.62,203.6,48.46-1.1-1.7-1.87-2.88-2.65-4.06C793.23,751.33,770,723.48,742.45,699.4Z"/><path d="M812.31,299.67c-27.85-2.92-55.65-2.69-83.29,1.89-63.53,10.54-116.3,39.68-156,91-1.91,2.46-3.76,5-5.5,7.58,4.79,3.1,9.15,9.52,12.48,18.07q-9.72,3.64-19,7.95a272,272,0,0,0-92.39,69.58c-9,10.31-70.58,105.84-94.08,134.41-34.72,42.21-72.66,80.45-127.71,97l3.7.41c27.84,2.92,55.64,2.69,83.28-1.89,63.53-10.54,116.3-39.68,156.06-91,1.9-2.46,3.75-5,5.5-7.58-4.8-3.1-9.15-9.51-12.48-18.07q9.72-3.65,19-7.94a272.07,272.07,0,0,0,92.4-69.59c9-10.31,70.58-105.84,94.07-134.41C723,354.84,761,316.6,816,300.08ZM557.32,538c-26.06,27.43-58.94,40.18-80.54,33.13-8.15-21.22,2.92-54.7,29-82.13s58.94-40.18,80.55-33.13C594.46,477.05,583.39,510.54,557.32,538Z"/><path d="M487.41,446.69q9.94-8.22,20.57-15.54a324.11,324.11,0,0,1-122.87-33.23c-37.71,3-74.88,10.34-111.71,20.2C263,420.91,252.61,424,241,427.34c1.6-.94,2.05-1.27,2.54-1.48,39.25-17.26,79.52-30.68,121.16-38.94a380.34,380.34,0,0,1-58.8-42.53c-4-3.53-8-7.17-11.91-10.88-10.75,8.22-21.66,16.28-31,26.05-42.79,44.55-91.92,78.53-153,92.9a7.67,7.67,0,0,0-2,.64c-1.48,13.58-7.8,63.49-23.76,94.76,1.44-.89,2.5-1.54,3.55-2.21,26.84-17.29,55-31.86,85.42-41.86C213.22,490.62,254,486.1,295.6,495c29.89,6.39,57,18.67,80.65,38.4a8.38,8.38,0,0,1,3.36,7c0,5.75.5,11.5.85,18.43,1.23-5.53,2-9.89,3.18-14.16,5.86-21.77,21-34.08,43.4-35.36,1.74-.09,3.48-.15,5.23-.18C442.83,493.52,448.78,485,452,481.33a308.52,308.52,0,0,1,23.87-24.56A733,733,0,0,0,382,451.09a6.67,6.67,0,0,1-4.12-.93C414.62,445.85,451.09,444.41,487.41,446.69Z"/><path d="M149.52,763.46a60.28,60.28,0,0,1-31.12,18.21c-3.66.86-7.36,1.59-12.39,2.67,19.27,4.93,75.13,18.39,106.86-3.17q-14.26-2.52-28.51-6.23A297.15,297.15,0,0,1,149.52,763.46Z"/></svg>