<svg id="Layer_1" data-name="Layer 1" xmlns="http://www.w3.org/2000/svg" viewBox="0 0 1000 1000"><title>logo-5</title><path d="M860.48,783.93a60.29,60.29,0,0,0,20.73,29.52c3,2.3,6,4.5,10.15,7.58-19.56-3.54-76-14.52-95.86-47.33q14,3.64,28.52,6.18A294.2,294.2,0,0,0,860.48,783.93Z"/><path d="M690,704.65c-63.26-55.34-136.36-84.42-221.09-82-4.06.12-8.12.33-12.2.74,4.06,35.53-48.21,82.78-122.74,109-70.12,24.72-136.53,22.61-160.06-2.89-13.53,2.31-57.36,8.21-129.52,2.78a279.7,279.7,0,0,0,92.45,42.93c61.6,16.16,123.56,14.67,185.69,3.53,23.59-4.23,46.28-12.31,69.57-17.33,55.23-11.88,111.25-18.83,167.85-18.79,71.34.05,141.34,6.63,203.6,48.47-1.1-1.7-1.87-2.89-2.65-4.07C740.81,756.58,717.55,728.73,690,704.65Z"/><path d="M777,762.14c.88.19,1.81.82,2.91,0-9.26-12.69-14.26-27-15.8-42.58a108.09,108.09,0,0,0,13.61,25.74,185.9,185.9,0,0,0,16,19.06,6.71,6.71,0,0,0,4,2c25.21,4.67,50.53,8.6,76,11.28,1.35.15,2.65.69,2.92-1.57.76-6.43,4.34-11.59,8-16.62,1.44-2,1.52-3.39,0-5.45a128.91,128.91,0,0,1-7.29-11.12c-1.28-2.12-2.07-4.54-3.34-6.67s.65-5.44-1.71-6.2c-1.91-.62-4.47,1-6.78,1.37-9,1.56-17.8.48-26.46-2.3,5.31.06,10.6.61,15.91.24A57.42,57.42,0,0,0,868.1,727c7.58-2.32,12.68-6.54,13.72-15,.59-4.93-1.19-7.3-6.1-6a105.11,105.11,0,0,1-13.79,3c-23.82,3-47.55,1.11-71.24-1.53-8.39-.94-16.72-2.43-25.11-3.48-4.08-.52-4.93-3-4.5-6.41.49-3.89,2.77-6.91,5.31-9.69,5.29-5.76,11.55-10.33,19-14.86-25.67,3.62-51,17.07-63.87,42.27a414.38,414.38,0,0,1,36,42.5Q767.23,760.05,777,762.14Z"/><path d="M891.11,645.47a11.64,11.64,0,0,1-4.67-7.65c-.53-3.33-2.61-4.62-5.14-5.83-9.19-4.37-19-5.77-29-6.5a102.27,102.27,0,0,0-25.17,1.18c-18.66,3.25-37.54,2.22-56.34,1.21-11-.6-22.08-2.06-33.13-2.31-21.52-.49-41.89,4.16-59.85,16.49-6,4.11-10.71,10-17,13.93a72.08,72.08,0,0,1-7,3.9,380.7,380.7,0,0,1,45.46,34.22q8.89,7.8,17.35,16.19a52.48,52.48,0,0,1,6.87-15.3c10.92-16.56,25.83-28.76,42.6-38.88,20.33-12.27,42.28-20.69,65.08-27a10.88,10.88,0,0,1,2.07,0c-11.41,5.86-19.25,14.41-26.4,24.1,22.15-5.59,43.81-2.2,65.12,2.42,8.89,1.92,14.58.57,19.39-6.78C892.37,647.29,892.88,646.72,891.11,645.47Z"/><path d="M920.4,428.69c-12.4-8.62-24.64-17.47-34.54-29.05-3.53-4.12-6.67-8.52-7.18-15.11-3.66,7-7.12,13.22-10.14,19.63-1.27,2.71-2.83,3.55-5.69,3.48-21.44-.59-40.24-8.39-57.25-20.95-15.72-11.6-28-26.31-38-43-4.13-6.88-8.19-13.8-12-20.85a186.48,186.48,0,0,0-38.26,20.07q8.86,7.27,17.45,14.9c11.55,10.25,21.78,22,33.74,31.95,31.52,26.1,66,46.69,105.93,57.21a180.49,180.49,0,0,0,75,4c1.43-.23,3.07,0,4.46-1.37C942.44,443,931.19,436.19,920.4,428.69Z"/><path d="M717.67,541.79a18.76,18.76,0,0,0-10.13-1.63A55.83,55.83,0,0,0,686.45,546c-8.41,4.36-8.92,10-1.11,15.26,6.28,4.27,12.94,8,19.56,11.76,30.74,17.37,63.62,29.29,97.74,38,11,2.8,22.15,5.07,33.32,7.18,2.75.53,4-.3,5.2-2.55A24.13,24.13,0,0,0,844,605.34c.31-9.61-3.72-17.6-9.51-25.56-.42,1.14-.66,1.74-.88,2.35-4.38,12.4-12.88,18.33-25.81,15-28.88-8.18-47.7-26.43-58.89-48-3.43-9.34-.45-15,9.46-17,9.44-1.93,19-1.23,28.56-.94A192.11,192.11,0,0,1,844,541.31c5.51,1.89,11,1.68,15.88-1.74,1.51-1.05,2.82-2.31-.21-3.65-39.39-17.56-80-29.69-123.73-27.89a118.5,118.5,0,0,0-47.65,11.68c3.1.74,5.55,1.27,8,1.92,8.34,2.23,16.51,4.86,23.1,10.82,5.13,4.65,6.78,10.22,4.21,17.58C722.49,546.14,720.84,543.36,717.67,541.79Z"/><path d="M895.38,619.07c1.55,1,2.59-.39,3.58-1.28,6-5.48,12-11,16.7-17.83,1.26-1.84,2.68-3.74,2.75-6,.13-4,0-7.56-4.75-9.81A117.22,117.22,0,0,1,888.12,568c-5.88-5-9.83-10.91-10-18.81-.07-3.85-3.89-3.42-6.07-6.32-.46,7.24-3.88,10.63-9.9,11.38-1.21.15-1.69.58-1.75,1.77-.26,5.25-.69,10.5.66,15.7,1,3.67,2.9,5.43,7,5.46,5.73,0,10.85,2,14.38,8.34-11-6-21-4.71-30.66.94-1.47.86-3.7,1.42-3.52,3.58.17,1.94,2.36,2.06,3.79,2.79,1,.5,2.1.81,2.38,2.33a9.65,9.65,0,0,1-1.39.58c-6.36,1.67-7.43,4.57-3.66,10a10.1,10.1,0,0,0,14.83,2.06c3.51-3,7.12-5.74,11.68-6.94,6.75-1.76,12.38.54,17,5.27a7.65,7.65,0,0,1,1.67,8.86C893.88,616.52,893.86,618.09,895.38,619.07Z"/><path d="M771.5,333c17.34,31.68,41,55.76,77.44,64.35A216.52,216.52,0,0,0,771.5,333Z"/><path d="M801.87,697.2c-.42,1.36-.64,2.15-2.31,2.12-10-.19-19.94.07-29.75-2.22-.87-.2-2.42-2-2.83.28-.29,1.69-1.2,4,1.54,4.89a4.45,4.45,0,0,0,.81.15c28.45,4,56.95,6.54,85.65,2.83,5.22-.68,10.3-2,15.43-3.22,3-.7,2.93-2.6,2.49-4.62-.58-2.6-2.54-.86-3.67-.65-13.75,2.62-27.5,5-41.6,4.37-3.56-.16-4.88-1.42-5.08-5-.53-9.53-1.58-19-.78-28.71C813.83,676.58,805.54,685.37,801.87,697.2Z"/><path d="M880.81,661.11c-4-.45-8.08-1-12.18-1.34-17.63-1.61-35.25-2.94-53-1.95-9.11.5-15.67,5-22.35,11.68,18.53-5.62,36.56-8.36,55.07-6.93,3.3.25,6.6.72,9.87,1.26,8.7,1.45,13.06,7.62,12.16,16.61,3.2-4.17,7.54-8,4.11-14.28C877.82,666.21,880.5,665.34,880.81,661.11Z"/><path d="M759.89,304.93c-27.84-2.92-55.64-2.7-83.29,1.89-63.53,10.54-116.3,39.68-156.05,91-1.91,2.46-3.76,5-5.5,7.58,4.79,3.1,9.15,9.51,12.48,18.07q-9.72,3.63-19,7.94A272,272,0,0,0,416.17,501c-9,10.3-70.58,105.84-94.08,134.4-34.72,42.22-72.66,80.46-127.71,97l3.7.4c27.84,2.93,55.64,2.7,83.28-1.89,63.53-10.54,116.3-39.68,156.06-91,1.9-2.46,3.75-5,5.5-7.58-4.8-3.1-9.15-9.51-12.48-18.06q9.72-3.64,19-8a271.94,271.94,0,0,0,92.4-69.59c9-10.3,70.58-105.84,94.07-134.4,34.73-42.21,72.66-80.46,127.71-97Zm-255,238.29c-26.07,27.42-58.94,40.18-80.55,33.13-8.15-21.22,2.92-54.71,29-82.13s58.94-40.18,80.54-33.13C542,482.31,531,515.79,504.91,543.22Z"/><path d="M633.28,247.13A542,542,0,0,1,703.15,239c-37.57-14.55-77.13-16.75-118.38-8.19-23.21,4.82-45.22,13.12-66.29,23.92l-2.8,1.45A169.3,169.3,0,0,1,574,262c6.34-1.6,12.7-3.34,19.29-5.16C606.18,253.29,619.56,249.59,633.28,247.13Z"/><path d="M913.55,305.4a279.89,279.89,0,0,0-92.45-42.93c-61.6-16.16-123.56-14.67-185.7-3.53-23.59,4.23-46.27,12.32-69.57,17.33C510.61,288.15,454.58,295.1,398,295.06c-71.34-.05-141.33-6.63-203.6-48.47l2.65,4.07c20.12,30.5,43.38,58.35,70.9,82.43,63.26,55.34,136.37,84.42,221.09,82,4.06-.12,8.12-.33,12.2-.73-4.06-35.54,48.22-82.78,122.75-109,70.11-24.72,136.52-22.61,160.06,2.89a358.26,358.26,0,0,1,38.33-4.05,45,45,0,0,0-3.76-14.45l-3.22-7.45,4.94,6.45c4,5.27,7.6,10.24,10.8,15A706.33,706.33,0,0,1,913.55,305.4Z"/><path d="M844.36,370.45c-3.07,2.26-5.26,2.74-8.36-.48-9.73-10.1-19.41-20.36-32-27.76h0c16.45-14.3,25-31,15.55-52.92h0C829.91,302.88,839.29,317,846,332.65c2.94,6.89,5.34,14,5.53,21.57C851.69,360.72,849.88,366.36,844.36,370.45Z"/><path d="M893.23,510.45a193.42,193.42,0,0,1-6.38-37.62c-.29-4.79-2.37-9.08-3.55-13.62-.43-1.68-1.71-1.9-3.1-2.22C821.36,443.14,774,410.4,732.82,367.49c-6.93-7.21-14.72-13.44-22.63-19.53C690.3,362.6,673,380.35,657.11,398.81a578.91,578.91,0,0,1,94.4,32.54c.47.21.9.52,2.45,1.43-11.21-3.19-21.19-6.19-31.25-8.88a658.05,658.05,0,0,0-73.65-15.56c-.8,1-1.59,1.91-2.37,2.86-7.37,8.95-18.76,24.94-31.12,42.83l85.73,5.14c1.85,5.74-88.07-1.74-88.07-1.74-9.91,14.38-19.18,28.15-28.64,42.16L579,507.82A73.65,73.65,0,0,1,590.2,507a72.26,72.26,0,0,1,47.28,17.58c19.31-13,40.73-21.65,63.85-26.59,40.1-8.56,79.36-4.21,118,8.48,29.29,9.63,56.43,23.67,82.29,40.32,1.33.86,2.69,1.68,4.9,3.06A314.21,314.21,0,0,1,893.23,510.45Z"/><path d="M624.83,643.33q11.1,5.64,21.93,12.19c7-3.95,13-9.49,19-15.26,6.8-6.6,12.36-14.43,20.66-20.44L653.49,615A73.22,73.22,0,0,1,624.83,643.33Z"/><path d="M527.12,571.63a64.76,64.76,0,0,0-.51,7.92,63.27,63.27,0,0,0,9.89,34,315.44,315.44,0,0,1,78,24.72,63.6,63.6,0,0,0-42.91-119.58c-10.26,15.11-16.32,23.78-19.28,27.18A299.71,299.71,0,0,1,527.12,571.63Z"/></svg>